PathFileType	4	(X/Y/Z)	 New Session 107.trc
DataRate	CameraRate	NumFrames	NumMarkers	Units	OrigDataRate	OrigDataStartFrame	OrigNumFrames
100	100	9	14	m	100	455	909
Frame#	Time	C7			T8			IJ			PX			AA			AC			AI			TS			SC			GH			LE			ME			US			RS			
		X1	Y1	Z1	X2	Y2	Z2	X3	Y3	Z3	X4	Y4	Z4	X5	Y5	Z5	X6	Y6	Z6	X7	Y7	Z7	X8	Y8	Z8	X9	Y9	Z9	X10	Y10	Z10	X11	Y11	Z11	X12	Y12	Z12	X13	Y13	Z13	X14	Y14	Z14	
455	4.5500	-0.000846	0.109604	0.168204	0.003132	-0.102945	0.247708	-0.012633	-0.001779	0.006839	-0.005663	-0.146251	-0.055282	0.189804	0.021684	0.173391	0.145449	0.059735	0.096418	0.073653	0.038183	0.218983	0.081247	-0.080869	0.252640	0.011899	0.007635	0.011198	0.203577	0.035256	0.135047	0.333203	-0.218447	0.066381	0.264510	-0.285174	0.085407	0.312317	-0.366512	-0.176254	0.301560	-0.290641	-0.194412	
456	4.5600	-0.000768	0.109586	0.168175	0.003135	-0.102950	0.247686	-0.012487	-0.001814	0.006822	-0.005570	-0.146307	-0.055241	0.189900	0.021612	0.173362	0.145557	0.059698	0.096379	0.073727	0.038140	0.218959	0.081274	-0.080887	0.252668	0.011981	0.007605	0.011180	0.203698	0.035161	0.135017	0.333173	-0.218790	0.066389	0.264106	-0.285449	0.085559	0.311551	-0.367207	-0.176045	0.300901	-0.291347	-0.194291	
457	4.5700	-0.000686	0.109563	0.168149	0.003141	-0.102953	0.247645	-0.012351	-0.001862	0.006799	-0.005469	-0.146359	-0.055215	0.190011	0.021564	0.173311	0.145670	0.059675	0.096328	0.073807	0.038092	0.218931	0.081297	-0.080893	0.252683	0.012072	0.007568	0.011169	0.203819	0.035092	0.134957	0.333212	-0.219058	0.066390	0.263790	-0.285690	0.085713	0.310911	-0.367821	-0.175850	0.300331	-0.291974	-0.194171	
458	4.5800	-0.000608	0.109545	0.168126	0.003149	-0.102953	0.247591	-0.012233	-0.001919	0.006768	-0.005366	-0.146405	-0.055205	0.190125	0.021538	0.173243	0.145783	0.059658	0.096266	0.073878	0.038054	0.218903	0.081312	-0.080890	0.252686	0.012159	0.007530	0.011165	0.203935	0.035044	0.134873	0.333250	-0.219274	0.066384	0.263561	-0.285891	0.085862	0.310391	-0.368366	-0.175669	0.299838	-0.292522	-0.194058	
459	4.5900	-0.000540	0.109538	0.168096	0.003160	-0.102947	0.247533	-0.012132	-0.001974	0.006726	-0.005262	-0.146446	-0.055207	0.190237	0.021530	0.173161	0.145883	0.059620	0.096200	0.073941	0.038040	0.218874	0.081332	-0.080881	0.252678	0.012239	0.007503	0.011160	0.204042	0.035012	0.134771	0.333219	-0.219467	0.066371	0.263411	-0.286052	0.086000	0.309973	-0.368842	-0.175500	0.299407	-0.292990	-0.193953	
460	4.6000	-0.000487	0.109544	0.168053	0.003177	-0.102935	0.247476	-0.012045	-0.002022	0.006671	-0.005161	-0.146484	-0.055217	0.190343	0.021534	0.173067	0.145952	0.059527	0.096137	0.073998	0.038042	0.218834	0.081373	-0.080868	0.252660	0.012315	0.007490	0.011134	0.204141	0.034994	0.134659	0.333111	-0.219650	0.066354	0.263329	-0.286174	0.086123	0.309632	-0.369240	-0.175343	0.299027	-0.293381	-0.193854	
461	4.6100	-0.000446	0.109559	0.167993	0.003202	-0.102919	0.247420	-0.011959	-0.002060	0.006605	-0.005061	-0.146521	-0.055231	0.190447	0.021547	0.172963	0.145983	0.059373	0.096077	0.074059	0.038051	0.218781	0.081435	-0.080851	0.252633	0.012390	0.007481	0.011084	0.204231	0.034990	0.134544	0.332983	-0.219815	0.066339	0.263301	-0.286263	0.086234	0.309346	-0.369553	-0.175198	0.298691	-0.293708	-0.193760	
462	4.6200	-0.000415	0.109576	0.167922	0.003234	-0.102901	0.247367	-0.011862	-0.002090	0.006531	-0.004964	-0.146556	-0.055249	0.190546	0.021566	0.172856	0.146000	0.059222	0.096013	0.074127	0.038069	0.218722	0.081504	-0.080828	0.252599	0.012465	0.007471	0.011023	0.204312	0.035003	0.134433	0.332897	-0.219945	0.066330	0.263314	-0.286325	0.086338	0.309102	-0.369801	-0.175065	0.298393	-0.293982	-0.193670	
463	4.6300	-0.000388	0.109586	0.167845	0.003271	-0.102880	0.247319	-0.011752	-0.002117	0.006451	-0.004870	-0.146588	-0.055269	0.190636	0.021593	0.172757	0.146037	0.059158	0.095938	0.074184	0.038091	0.218666	0.081574	-0.080804	0.252553	0.012537	0.007458	0.010965	0.204383	0.035030	0.134330	0.332867	-0.220034	0.066322	0.263356	-0.286364	0.086441	0.308900	-0.370005	-0.174940	0.298141	-0.294210	-0.193584	
